<svg xmlns="http://www.w3.org/2000/svg" width="77.335" height="77.334" viewBox="0 0 77.335 77.334"><defs><style>.a{fill:#fff;}</style></defs><g transform="translate(0 -0.001)"><g transform="translate(55.68 69.335)"><path class="a" d="M371.5,459.788a1.511,1.511,0,0,0-2.064-.548l-.058.034a1.51,1.51,0,1,0,1.516,2.613l.058-.034A1.511,1.511,0,0,0,371.5,459.788Z" transform="translate(-368.63 -459.036)"/></g><g transform="translate(0 0.001)"><g transform="translate(0 0)"><path class="a" d="M72.153,19.347A38.658,38.658,0,0,0,1.334,28.67,38.665,38.665,0,0,0,52.5,74.781a1.51,1.51,0,0,0-1.084-2.819,35.408,35.408,0,0,1-34.073-4.683L18.7,60.215,19.351,60a4.7,4.7,0,0,0,3.017-5.921L21.89,52.61a1.668,1.668,0,0,1,0-1.041,4.7,4.7,0,0,0-3.563-6.076l-3.409-.666-6.578-5a1.511,1.511,0,0,0-1.381-.234L3.109,40.842A35.607,35.607,0,0,1,3.1,36.718c.152.142.251.238.312.3a1.583,1.583,0,0,0,1.476.757A21.939,21.939,0,0,0,7.6,37.467c1.274-.188,2.542-.4,2.554-.4a1.51,1.51,0,0,0,1-2.34L9.3,32.008l2.653-1.9a1.512,1.512,0,0,0,.432-.478L16.5,22.455l1.657-1.776a6.38,6.38,0,0,0,1.231-6.766,6.947,6.947,0,0,0-2.751-3.241A35.592,35.592,0,0,1,38.261,3.049l-2.7,3.383-10,3.506a1.51,1.51,0,0,0-.9.849l-2.793,6.771a1.511,1.511,0,0,0,.167,1.453l4.079,5.714A14.355,14.355,0,0,0,24.288,27c-.3.423-.579.822-.773,1.046-.169.195-.338.385-.506.574a14.134,14.134,0,0,0-2.429,3.372,9,9,0,0,0,.747,9.1,8.477,8.477,0,0,0,8,3.435,11.76,11.76,0,0,0,1.475-.3c1.295-.32,1.705-.352,2.121.036.2.189.221.225.217.867a5.871,5.871,0,0,0,.135,1.5,4.772,4.772,0,0,0,1.277,2.085,3.384,3.384,0,0,1,.548.7c.471,1.129.266,1.754-.184,3.124q-.058.176-.117.359c-.683,2.114.269,4.211,1.109,6.06.273.6.53,1.168.7,1.669,1.358,4.03,2.376,4.953,3.193,5.324a3.148,3.148,0,0,0,1.318.28c2.177,0,4.449-2.022,5.493-3.3a4.642,4.642,0,0,0,.935-2.2,2.408,2.408,0,0,1,.193-.675,3.957,3.957,0,0,1,.5-.637,5.239,5.239,0,0,0,1.235-2.052A3.324,3.324,0,0,1,50.5,55.753c.1-.11.215-.229.334-.358,2.012-2.189,1.494-3.861.945-5.632-.462-1.49.346-2.443,2.3-4.261a16.314,16.314,0,0,0,2.4-2.583,3.261,3.261,0,0,0,.639-3.025c-.546-1.267-1.935-1.48-3.05-1.651a5,5,0,0,1-1.318-.308,7.14,7.14,0,0,1-2.059-3.119c-.11-.245-.219-.488-.329-.723-.2-.42-.393-.927-.6-1.465a12.671,12.671,0,0,0-2.232-4.158c-.953-1.01-2.749-1.5-4.334-1.925-.533-.144-1.036-.28-1.368-.4a1.508,1.508,0,0,0-.868-.054,3.919,3.919,0,0,0-1.61.666,1.876,1.876,0,0,0-.538.723,17.275,17.275,0,0,1-1.781-1.084l-.029-.019a2.141,2.141,0,0,0-.135-1.454c-.844-1.785-3.645-1.645-4.2-1.6-.314.026-.711.04-1.131.055-.66.023-1.389.05-2.111.131l.037-.1a3.862,3.862,0,0,1,3.626-2.551h.859a1.51,1.51,0,1,0,0-3.021h-.859a6.894,6.894,0,0,0-5.847,3.261l-2.253-3.156L27.2,12.565l9.773-3.426a1.511,1.511,0,0,0,.681-.484L42,3.206A35.619,35.619,0,0,1,69.538,20.857,35.247,35.247,0,0,1,73.1,29.5l-.64.571a4.034,4.034,0,0,0-1.344,2.935c0,.012,0,.024,0,.036l-1.043-2.869a3.771,3.771,0,0,0-.68-1.167L67.527,26.83A3.785,3.785,0,0,0,64.645,25.5H62.368a2.187,2.187,0,0,0-1.82,3.4l.23.346a16.739,16.739,0,0,1-4.987,2.961l-3.122-5.98V24.9A1.509,1.509,0,0,0,52.2,23.8l-2.811-2.684a1.512,1.512,0,0,0-.542-.332L46.318,19.9a1.51,1.51,0,0,0-1,2.85l2.224.782,2.109,2.013V26.6a1.511,1.511,0,0,0,.172.7l3.909,7.487a1.51,1.51,0,0,0,1.861.718l1.138-.42a19.766,19.766,0,0,0,7.087-4.536A1.51,1.51,0,0,0,64,28.643l-.08-.121h.721a.769.769,0,0,1,.585.27l1.861,2.179a.767.767,0,0,1,.138.237l2.053,5.646a1.51,1.51,0,0,0,2.487.552l.977-.977A4.715,4.715,0,0,0,74,34.157,35.766,35.766,0,0,1,60.717,66.684a1.51,1.51,0,1,0,1.865,2.376,38.665,38.665,0,0,0,9.571-49.714ZM7.142,42.708l6.228,4.735a1.509,1.509,0,0,0,.625.28l3.754.733a1.678,1.678,0,0,1,1.273,2.17,4.669,4.669,0,0,0,0,2.916l.479,1.472a1.68,1.68,0,0,1-1.078,2.115l-1.5.488A1.51,1.51,0,0,0,15.9,58.77l-1.208,6.306a36.036,36.036,0,0,1-6.88-8.582A35.449,35.449,0,0,1,3.424,43.916Zm8.8-24.09-1.777,1.9a1.517,1.517,0,0,0-.206.28L9.926,27.846,6.341,30.41a1.51,1.51,0,0,0-.369,2.079l1.341,1.967c-.773.115-1.467.21-1.928.26-.089-.085-.181-.171-.277-.26-.359-.334-.858-.779-1.6-1.43a35.7,35.7,0,0,1,10.638-20.2,3.927,3.927,0,0,1,2.448,2.241A3.352,3.352,0,0,1,15.944,18.618Zm12.315,8.254a9.685,9.685,0,0,1,3.379-.475c.458-.016.89-.032,1.276-.064a4.108,4.108,0,0,1,.643,0,1.51,1.51,0,0,0,.695,1.879c.283.152.678.415,1.1.693a8.7,8.7,0,0,0,3.775,1.759,2.506,2.506,0,0,0,2.052-.855c.022-.022.042-.044.064-.064a1.618,1.618,0,0,0,.4-.495c.242.069.5.138.755.208a10.057,10.057,0,0,1,2.927,1.083,10.721,10.721,0,0,1,1.612,3.174c.227.588.442,1.142.682,1.657.1.221.2.448.308.678a9.432,9.432,0,0,0,3.163,4.412,6.243,6.243,0,0,0,2.513.766l.329.052a14.6,14.6,0,0,1-1.916,2.011c-1.87,1.741-4.2,3.908-3.125,7.366.506,1.632.529,1.809-.284,2.694-.111.121-.214.231-.311.334a6.206,6.206,0,0,0-1.7,2.762,2.358,2.358,0,0,1-.615.96,6.744,6.744,0,0,0-.845,1.119,4.895,4.895,0,0,0-.547,1.6,1.849,1.849,0,0,1-.316.885A8.8,8.8,0,0,1,42.364,62.7a2.492,2.492,0,0,1-1.266.5,10.775,10.775,0,0,1-1.627-3.547c-.218-.646-.519-1.31-.811-1.953-.643-1.417-1.308-2.882-.985-3.883q.057-.177.113-.346a6.6,6.6,0,0,0,.1-5.229,5.447,5.447,0,0,0-1.1-1.567,2.808,2.808,0,0,1-.577-.766,3.265,3.265,0,0,1-.05-.764,3.746,3.746,0,0,0-1.173-3.092c-1.671-1.565-3.621-1.083-4.91-.764a9.475,9.475,0,0,1-1.1.23,5.426,5.426,0,0,1-5.2-2.2,5.98,5.98,0,0,1-.469-6.045,11.468,11.468,0,0,1,1.955-2.655c.175-.2.352-.4.529-.6.295-.34.619-.8.961-1.286A10.918,10.918,0,0,1,28.259,26.872Z" transform="translate(0 -0.001)"/></g></g><g transform="translate(52.888 48.14)"><path class="a" d="M359.193,322.573l-.727-2.739a1.51,1.51,0,0,0-2.787-.333c-.166.305-.315.628-.459.941a6.488,6.488,0,0,1-.754,1.37,3.333,3.333,0,0,1-.887.526,4.152,4.152,0,0,0-2.515,2.445,4.425,4.425,0,0,0-.1,2.131,1.374,1.374,0,0,1-.039.89l-.015.035c-.481,1.128-1.375,3.228-.121,5.014a3.146,3.146,0,0,0,2.567,1.6,2.455,2.455,0,0,0,.4-.032c1.541-.252,2.7-1.854,3.645-5.044l1.777-5.988A1.51,1.51,0,0,0,359.193,322.573Zm-4.684,5.946a9.159,9.159,0,0,1-1.156,2.722c-.028-.036-.059-.077-.092-.124-.289-.411.143-1.424.428-2.094l.015-.035a4.25,4.25,0,0,0,.248-2.516,1.584,1.584,0,0,1-.006-.784c.059-.188.413-.371.946-.629.236-.114.5-.24.759-.392Z" transform="translate(-350.15 -318.712)"/></g><g transform="translate(38.674 17.833)"><path class="a" d="M258.156,118.18l-.1-.036a1.51,1.51,0,0,0-1,2.85l.1.036a1.51,1.51,0,0,0,1-2.85Z" transform="translate(-256.044 -118.059)"/></g></g></svg>