<svg xmlns="http://www.w3.org/2000/svg" width="65.197" height="59.223" viewBox="0 0 65.197 59.223"><defs><style>.a{fill:#fff;}</style></defs><g transform="translate(59.542 38.875)"><path class="a" d="M472.866,332.2l-3.108-3.083a1.274,1.274,0,0,0-1.794,1.809l3.108,3.083a1.274,1.274,0,0,0,1.794-1.809Z" transform="translate(-467.587 -328.751)"/></g><g transform="translate(56.37 35.717)"><g transform="translate(0 0)"><path class="a" d="M444.851,304.325a1.274,1.274,0,0,0-1.8,0l0,0a1.274,1.274,0,1,0,1.8,0Z" transform="translate(-442.675 -303.952)"/></g></g><g transform="translate(0 0)"><path class="a" d="M47.687,65.425,60.043,53.07A4.8,4.8,0,0,0,57.728,45a4.8,4.8,0,0,0-3.538-6.753,4.791,4.791,0,0,0-3.738-6.23,4.8,4.8,0,0,0-6.85-5.725l-.123-.132a8.5,8.5,0,0,0-6.2-2.7h-10A1.274,1.274,0,0,0,26,24.736v1.67a5.786,5.786,0,0,0,.329,1.931,4.8,4.8,0,0,0-6.4,5.941,4.8,4.8,0,0,0-3.743,6.23,4.8,4.8,0,0,0-3.535,6.749,4.8,4.8,0,0,0-2.315,8.071l2.541,2.541L.373,70.378a1.274,1.274,0,1,0,1.8,1.8L14.8,59.549a4.8,4.8,0,0,0,7.165-4.367c.065,0,.129,0,.194,0a4.8,4.8,0,0,0,4.8-4.8c0-.065,0-.129,0-.194.064,0,.128,0,.192,0a4.8,4.8,0,0,0,4.8-4.8c0-.065,0-.129,0-.194.064,0,.128,0,.192,0a4.8,4.8,0,0,0,3.712-7.839L44.3,28.921a2.252,2.252,0,1,1,3.185,3.185l-1.247,1.247-4.523,4.523a1.274,1.274,0,1,0,1.8,1.8l4.523-4.523a2.252,2.252,0,1,1,3.185,3.185l-1.247,1.247L46.7,42.861a1.274,1.274,0,1,0,1.8,1.8l3.276-3.276a2.252,2.252,0,1,1,3.185,3.185l-1.711,1.711-1.565,1.565a1.274,1.274,0,1,0,1.8,1.8l1.566-1.566a2.252,2.252,0,0,1,3.184,3.186L45.885,63.625a17.254,17.254,0,0,1-11.611,5.058,1.273,1.273,0,0,0-.856.374L22,80.512a1.274,1.274,0,1,0,1.8,1.8l8.4-8.426a11.838,11.838,0,0,0,7.19,1.85l6.57,6.571a1.274,1.274,0,0,0,1.8-1.8L40.78,73.517a1.274,1.274,0,0,0-1-.369l-.4.033a9.3,9.3,0,0,1-5.315-1.157l.819-.821A19.79,19.79,0,0,0,47.687,65.425ZM18.768,56.969a2.252,2.252,0,0,1-3.185,0l-3.441-3.441a2.252,2.252,0,1,1,3.185-3.185l3.441,3.441A2.255,2.255,0,0,1,18.768,56.969Zm4.986-4.986a2.255,2.255,0,0,1-3.185,0l-3.441-3.441-1.711-1.711A2.252,2.252,0,1,1,18.6,43.644L23.754,48.8h0a2.252,2.252,0,0,1,0,3.185ZM28.741,47a2.255,2.255,0,0,1-3.185,0l-6.4-6.4a2.252,2.252,0,0,1,3.184-3.186l2.917,2.917,3.483,3.483h0a2.253,2.253,0,0,1,0,3.185Zm4.986-4.986a2.255,2.255,0,0,1-3.185,0l-6.4-6.4,0,0L22.9,34.364a2.252,2.252,0,0,1,3.185-3.185l7.646,7.646a2.253,2.253,0,0,1,0,3.185Zm.335-6.453-3.5-3.5a5.827,5.827,0,0,0,1.22.13h.028l3.5-.016a1.274,1.274,0,0,0-.006-2.547h-.006l-3.5.016h-.016a3.235,3.235,0,0,1-3.235-3.235v-.4h8.728A5.944,5.944,0,0,1,41.614,27.9l.052.056Z" transform="translate(0 -23.462)"/></g></svg>