<svg id="imac" xmlns="http://www.w3.org/2000/svg" width="74.563" height="74.562" viewBox="0 0 74.563 74.562">
  <g id="Group_859" data-name="Group 859">
    <g id="Group_858" data-name="Group 858">
      <path id="Path_720" data-name="Path 720" d="M68.349,0H6.214A6.435,6.435,0,0,0,0,6.214v32.31a1.243,1.243,0,0,0,2.485,0l0-32.226A3.941,3.941,0,0,1,6.214,2.485H68.349a3.733,3.733,0,0,1,3.728,3.728V50.951a3.646,3.646,0,0,1-3.728,3.728H6.214a3.647,3.647,0,0,1-3.728-3.728V44.737H68.349a1.241,1.241,0,0,0,1.194-1.584,55.8,55.8,0,0,0-7.19-15.441A3.814,3.814,0,0,0,57.3,26.359a3.592,3.592,0,0,0-1.012.881,4.518,4.518,0,0,0-7.389,1.1A4.521,4.521,0,0,0,42.5,30.044L35.068,19.711C32.719,16.5,30.3,17.4,29.376,17.941a3.972,3.972,0,0,0-1.971,2.75,4.829,4.829,0,0,0,.647,3.267l9.41,15.219a1.243,1.243,0,0,0,2.115-1.307L30.186,22.683a2.32,2.32,0,0,1-.336-1.547,1.48,1.48,0,0,1,.768-1.043c.345-.2,1.158-.669,2.437,1.076l9.591,13.342a1.243,1.243,0,0,0,2.086-1.346,2.027,2.027,0,1,1,3.511-2.028l.816,1.415h0a1.243,1.243,0,0,0,2.154-1.243v0a2.028,2.028,0,0,1,3.514-2.026l1.225,2.124a1.243,1.243,0,1,0,2.154-1.243h0a1.165,1.165,0,0,1,1.352-1.726,1.3,1.3,0,0,1,.8.615,54.757,54.757,0,0,1,6.407,13.2H1.243A1.243,1.243,0,0,0,0,43.494V50.95a6.147,6.147,0,0,0,6.214,6.214H68.349a6.147,6.147,0,0,0,6.214-6.214V6.213A6.221,6.221,0,0,0,68.349,0Z"/>
      <path id="Path_721" data-name="Path 721" d="M150.094,80.077l-3.514-3.516a1.243,1.243,0,0,0-1.757,1.757l3.514,3.516a1.242,1.242,0,1,0,1.757-1.757Z" transform="translate(-123.421 -65.101)"/>
      <path id="Path_722" data-name="Path 722" d="M165.115,417.056h-3.728v-6.214a1.243,1.243,0,1,0-2.485,0V418.3a1.242,1.242,0,0,0,1.243,1.243h4.971a4.147,4.147,0,0,1,3.449,2.485H139.3a4.147,4.147,0,0,1,3.449-2.485h12.427a1.243,1.243,0,0,0,0-2.485H148.96v-6.214a1.243,1.243,0,0,0-2.485,0v6.214h-3.728a6.546,6.546,0,0,0-6.214,6.214,1.243,1.243,0,0,0,1.243,1.243h32.31a1.242,1.242,0,0,0,1.243-1.243A6.545,6.545,0,0,0,165.115,417.056Z" transform="translate(-116.65 -349.95)"/>
      <path id="Path_723" data-name="Path 723" d="M148.337,173.108l-3.514,3.513a1.243,1.243,0,1,0,1.757,1.757l3.514-3.513a1.242,1.242,0,1,0-1.757-1.757Z" transform="translate(-123.421 -147.588)"/>
      <path id="Path_724" data-name="Path 724" d="M238.933,326.751a2.485,2.485,0,1,0,2.485-2.485A2.488,2.488,0,0,0,238.933,326.751Z" transform="translate(-204.137 -277.043)"/>
      <path id="Path_725" data-name="Path 725" d="M243.115,81.836l3.516-3.514a1.243,1.243,0,0,0-1.757-1.757l-3.516,3.514a1.243,1.243,0,1,0,1.757,1.757Z" transform="translate(-205.898 -65.103)"/>
      <path id="Path_726" data-name="Path 726" d="M207.277,57.414V52.443a1.243,1.243,0,1,0-2.485,0v4.971a1.243,1.243,0,0,0,2.485,0Z" transform="translate(-174.968 -43.744)"/>
      <path id="Path_727" data-name="Path 727" d="M119.467,137.777a1.243,1.243,0,0,0,1.243,1.243h4.97a1.243,1.243,0,0,0,0-2.485h-4.97A1.243,1.243,0,0,0,119.467,137.777Z" transform="translate(-102.069 -116.651)"/>
    </g>
  </g>
</svg>
