<svg xmlns="http://www.w3.org/2000/svg" width="54.142" height="90.236" viewBox="0 0 54.142 90.236">
  <g id="idea" transform="translate(-102.4)">
    <g id="Group_856" data-name="Group 856" transform="translate(102.4)">
      <g id="Group_855" data-name="Group 855">
        <path id="Path_707" data-name="Path 707" d="M231.9,170.667a1.5,1.5,0,1,0,0,3.008h6.016a1.5,1.5,0,1,0,0-3.008Z" transform="translate(-207.841 -140.588)"/>
        <path id="Path_708" data-name="Path 708" d="M193.827,26.044a1.5,1.5,0,0,0,1.426,1.027h9.024a1.5,1.5,0,0,0,1.426-1.027l1.394-4.181c3.119-3.206,4.7-6.512,4.7-9.831a12.031,12.031,0,0,0-24.063,0c0,3.319,1.581,6.625,4.7,9.831Zm5.938-23.036a9.035,9.035,0,0,1,9.024,9.024c0,2.581-1.37,5.259-4.071,7.96a1.486,1.486,0,0,0-.363.588l-1.163,3.483h-1.923V13.535a1.5,1.5,0,0,0-3.008,0V24.063h-1.923l-1.162-3.483a1.519,1.519,0,0,0-.363-.588c-2.7-2.7-4.071-5.38-4.071-7.96A9.033,9.033,0,0,1,199.764,3.008Z" transform="translate(-172.694)"/>
        <path id="Path_709" data-name="Path 709" d="M121.6,5.113l5.557,2.3a1.5,1.5,0,1,0,1.152-2.778l-5.558-2.3A1.5,1.5,0,0,0,121.6,5.113Z" transform="translate(-117.455 -1.829)"/>
        <path id="Path_710" data-name="Path 710" d="M344.218,7.53a1.5,1.5,0,0,0,.576-.116l5.557-2.3a1.5,1.5,0,0,0-1.15-2.779l-5.559,2.3a1.5,1.5,0,0,0,.576,2.894Z" transform="translate(-300.361 -1.829)"/>
        <path id="Path_711" data-name="Path 711" d="M349.867,61.238a1.5,1.5,0,0,0,1.5,1.5h6.016a1.5,1.5,0,1,0,0-3.008h-6.016A1.5,1.5,0,0,0,349.867,61.238Z" transform="translate(-306.253 -49.206)"/>
        <path id="Path_712" data-name="Path 712" d="M344.8,104.315a1.5,1.5,0,1,0-1.152,2.778l5.557,2.3a1.525,1.525,0,0,0,.576.114,1.5,1.5,0,0,0,.576-2.894Z" transform="translate(-300.368 -85.836)"/>
        <path id="Path_713" data-name="Path 713" d="M127.17,104.318l-5.557,2.3a1.5,1.5,0,0,0,.574,2.894,1.521,1.521,0,0,0,.576-.114l5.558-2.3a1.5,1.5,0,1,0-1.152-2.778Z" transform="translate(-117.462 -85.839)"/>
        <path id="Path_714" data-name="Path 714" d="M227.88,422.648a7.989,7.989,0,0,0,5.575-1.943,1.493,1.493,0,0,0,.009-2.1,1.514,1.514,0,0,0-2.118-.045,6.106,6.106,0,0,1-6.93,0,1.5,1.5,0,0,0-2.112,2.142A7.989,7.989,0,0,0,227.88,422.648Z" transform="translate(-200.81 -344.444)"/>
        <path id="Path_715" data-name="Path 715" d="M277.579,328.78a1.5,1.5,0,0,0,1.5-1.5h1.5a1.5,1.5,0,1,0,0-3.008h-6.016a1.5,1.5,0,1,0,0,3.008h1.5A1.5,1.5,0,0,0,277.579,328.78Z" transform="translate(-242.988 -267.119)"/>
        <path id="Path_716" data-name="Path 716" d="M196.757,325.771a1.5,1.5,0,0,0-1.5-1.5h-6.016a1.5,1.5,0,1,0,0,3.008h1.5a1.5,1.5,0,0,0,3.008,0h1.5A1.5,1.5,0,0,0,196.757,325.771Z" transform="translate(-172.695 -267.118)"/>
        <path id="Path_717" data-name="Path 717" d="M112.438,62.742h6.016a1.5,1.5,0,1,0,0-3.008h-6.016a1.5,1.5,0,1,0,0,3.008Z" transform="translate(-109.43 -49.206)"/>
        <path id="Path_718" data-name="Path 718" d="M103.9,157.286a1.5,1.5,0,0,0,1.5-1.5c0-.147.144-14.833,12.641-20.389a1.5,1.5,0,1,0-1.221-2.748C102.564,138.986,102.4,155.1,102.4,155.782A1.5,1.5,0,0,0,103.9,157.286Z" transform="translate(-102.4 -109.16)"/>
        <path id="Path_719" data-name="Path 719" d="M153.537,172.016v-7.778c0-.155-.152-15.557-13.29-17.784a1.5,1.5,0,0,0-.5,2.966c10.621,1.8,10.783,14.29,10.785,14.818v9.024a1.5,1.5,0,0,0,1.5,1.5,1.505,1.505,0,0,1,1.5,1.5v6.016a1.5,1.5,0,0,1-1.5,1.5,1.507,1.507,0,0,0-1.409.976c-.044.12-4.485,11.922-7.362,16.238l-.247.372c-1.8,2.734-4.271,6.478-13.541,6.478s-11.74-3.743-13.541-6.477l-.247-.372c-2.877-4.316-7.318-16.118-7.363-16.238a1.5,1.5,0,0,0-1.408-.976,1.5,1.5,0,0,1-1.5-1.5v-6.016a1.5,1.5,0,0,1,.427-1.048,4.214,4.214,0,0,0,4.085,2.552,1.5,1.5,0,0,0,1.345-.83,38.908,38.908,0,0,0,3.082-11.215c4.74-.084,18.455-.663,24.556-4.471,1.384,5.342,5.825,9.839,6.049,10.061a1.5,1.5,0,0,0,2.127-2.128c-.056-.056-5.575-5.637-5.575-10.968a1.5,1.5,0,0,0-2.794-.773c-2.188,3.646-16.393,5.285-25.78,5.285a1.5,1.5,0,0,0-1.5,1.5,35.068,35.068,0,0,1-2.381,10.318,1.477,1.477,0,0,1-.627-1.295,1.5,1.5,0,0,0-1.5-1.5,4.517,4.517,0,0,0-4.512,4.512v6.016a4.523,4.523,0,0,0,3.424,4.381c1.1,2.853,4.724,12.057,7.356,16l.238.359c1.93,2.93,5.162,7.83,16.052,7.83s14.122-4.9,16.053-7.83l.238-.359c2.632-3.948,6.258-13.152,7.356-16a4.522,4.522,0,0,0,3.424-4.381v-6.016A4.518,4.518,0,0,0,153.537,172.016Z" transform="translate(-102.403 -120.623)"/>
      </g>
    </g>
  </g>
</svg>
