<svg xmlns="http://www.w3.org/2000/svg" width="76" height="76" viewBox="0 0 76 76">
  <g id="_004-video-conference" data-name="004-video-conference" transform="translate(0 -0.002)">
    <g id="Group_862" data-name="Group 862" transform="translate(44.333 12.669)">
      <g id="Group_861" data-name="Group 861">
        <path id="Path_728" data-name="Path 728" d="M296.926,96.527a8.792,8.792,0,0,0,3.34-6.392C300.267,81.76,295.444,80,291.4,80s-8.867,1.758-8.867,10.133a8.792,8.792,0,0,0,3.34,6.4A6.692,6.692,0,0,0,280,103.182v8.487a1.267,1.267,0,0,0,1.267,1.267h20.267a1.267,1.267,0,0,0,1.267-1.267v-8.487A6.692,6.692,0,0,0,296.926,96.527ZM285.132,88.8c.343-4.246,2.341-6.26,6.267-6.26,3.595,0,5.573,1.7,6.14,5.247l-4.221-2.533a1.267,1.267,0,0,0-1.853.685C290.825,87.857,287.364,88.584,285.132,88.8Zm.11,2.541v0c2.169-.179,6.08-.835,7.9-3.236l4.527,2.717c-.508,3.1-4.329,5.654-6.274,5.654A7.98,7.98,0,0,1,285.243,91.336Zm7.2,12.423-1.046,1.051-1.046-1.048,1.046-2.621Zm7.82,6.642H282.533v-7.22a4.185,4.185,0,0,1,4.18-4.18h2.812l-1.839,4.6a1.267,1.267,0,0,0,.281,1.365L290.5,107.5a1.267,1.267,0,0,0,1.791,0l2.533-2.533a1.267,1.267,0,0,0,.281-1.365L293.271,99h2.816a4.18,4.18,0,0,1,4.18,4.18Z" transform="translate(-280 -80.002)" fill="#fff"/>
      </g>
    </g>
    <g id="Group_864" data-name="Group 864" transform="translate(0 0.002)">
      <g id="Group_863" data-name="Group 863">
        <path id="Path_729" data-name="Path 729" d="M75.525,73.746l-6.333-5.067A1.266,1.266,0,0,0,68.4,68.4H56.327l-4.222-5.067H69.666A6.341,6.341,0,0,0,76,57V6.335A6.341,6.341,0,0,0,69.666,0H6.333A6.341,6.341,0,0,0,0,6.335H2.533a3.8,3.8,0,0,1,3.8-3.8H69.666a3.8,3.8,0,0,1,3.8,3.8V57a3.8,3.8,0,0,1-3.8,3.8h-34.2v2.533H48.806L53.029,68.4H35.467v2.533H67.955l3.167,2.533H35.467V76H74.733a1.267,1.267,0,0,0,.792-2.256Z" transform="translate(0 -0.002)" fill="#fff"/>
      </g>
    </g>
    <g id="Group_866" data-name="Group 866" transform="translate(26.6 5.069)">
      <g id="Group_865" data-name="Group 865">
        <path id="Path_730" data-name="Path 730" d="M211.066,32H168v2.533h41.8V77.6H176.867v2.533h34.2a1.267,1.267,0,0,0,1.267-1.267v-45.6A1.267,1.267,0,0,0,211.066,32Z" transform="translate(-168 -32.002)" fill="#fff"/>
      </g>
    </g>
    <g id="Group_868" data-name="Group 868" transform="translate(0.155 6.336)">
      <g id="Group_867" data-name="Group 867">
        <path id="Path_731" data-name="Path 731" d="M38.014,62.865a8.792,8.792,0,0,0,3.34-6.392c0-8.375-4.822-10.133-8.867-10.133a9.611,9.611,0,0,0-4.63,1.05A17.7,17.7,0,0,0,1.212,44.946l1.754,1.828A15.2,15.2,0,0,1,28.688,57.74h-3.8a6.341,6.341,0,0,1-6.333-6.333,1.266,1.266,0,0,0-1.542-1.238l-.76.17A54.822,54.822,0,0,0,1.473,55.96l1.232,2.214a52.248,52.248,0,0,1,13.453-5.215,8.882,8.882,0,0,0,8.73,7.314h2.473a17.589,17.589,0,0,1-6.3,12.456,11.831,11.831,0,0,1-15.153,0,17.564,17.564,0,0,1-2.9-3.073L.976,71.166a20.171,20.171,0,0,0,3.312,3.515c.108.09.223.167.333.253v4.693l-2.934.978.8,2.407L4.621,82.3V107.14H2.088v2.533H35.021a1.267,1.267,0,0,0,1.265-1.268c0-.042,0-.084-.006-.125L33.747,84.213a1.267,1.267,0,0,0-.859-1.074L22.355,79.628v-4.7c.11-.086.224-.163.333-.253a20.14,20.14,0,0,0,6.285-9.337H30.62l-1.839,4.6a1.267,1.267,0,0,0,.281,1.365L31.6,73.835a1.267,1.267,0,0,0,1.791,0L35.919,71.3a1.267,1.267,0,0,0,.281-1.365l-1.842-4.6h2.816a4.18,4.18,0,0,1,4.18,4.18v7.22H24.888v2.533H42.621a1.267,1.267,0,0,0,1.267-1.267V69.52A6.692,6.692,0,0,0,38.014,62.865ZM7.155,85.122l3.031,1.52L7.155,87.648Zm0,22.017V90.318l4.489-1.5L8.466,100.476a1.266,1.266,0,0,0,.089.9l2.884,5.765Zm3.882-6.466,2.451-8.987,2.451,8.987-2.451,4.9Zm8.784,6.466H15.538l2.883-5.767a1.266,1.266,0,0,0,.089-.9L15.331,88.82l4.49,1.5Zm0-19.491L16.79,86.635l3.031-1.512Zm0-5.359-6.333,3.167L7.155,82.289V76.524a14.268,14.268,0,0,0,12.667,0Zm11.492,2.994,2.3,21.856H22.355V82.3Zm1.174-36.41c3.595,0,5.573,1.7,6.14,5.247l-4.221-2.533a1.267,1.267,0,0,0-1.853.685,3.266,3.266,0,0,1-1.742,1.709A17.585,17.585,0,0,0,29.2,49.547,7.185,7.185,0,0,1,32.488,48.873Zm0,22.276L31.442,70.1l1.046-2.618L33.534,70.1Zm0-8.342a5.8,5.8,0,0,1-2.721-1.02c.066-.507.1-1.006.127-1.514h.061a1.267,1.267,0,0,0,1.267-1.267V57.74c0-.39-.033-.771-.058-1.155a7.055,7.055,0,0,0,3.07-2.147l4.528,2.717C38.254,60.257,34.432,62.806,32.488,62.806Z" transform="translate(-0.976 -40.007)" fill="#fff"/>
      </g>
    </g>
  </g>
</svg>
