<svg xmlns="http://www.w3.org/2000/svg" width="61.472" height="61.087" viewBox="0 0 61.472 61.087"><path d="M30.543,3.156A27.249,27.249,0,0,1,44.534,7.121a30.289,30.289,0,0,1,7.3,6.144l-7.222-.238a1.537,1.537,0,0,0-.1,3.072l9.992.33a1.537,1.537,0,0,0,2.005-2.008l-.329-9.989A1.537,1.537,0,0,0,53.1,4.5c0,.012,0,.022,0,.033L53.3,10.3a33.523,33.523,0,0,0-7.18-5.811A30.328,30.328,0,0,0,30.543.082,29.723,29.723,0,0,0,8.2,10.074,31.727,31.727,0,0,0,0,30.625a1.537,1.537,0,0,0,3.074,0A28.573,28.573,0,0,1,10.488,12.13,26.687,26.687,0,0,1,30.543,3.156Zm0,0" transform="translate(0 -0.082)" fill="#fff"/><path d="M94.524,236.012a1.536,1.536,0,0,0-1.537,1.537,28.576,28.576,0,0,1-7.415,18.5,26.686,26.686,0,0,1-20.055,8.974,27.248,27.248,0,0,1-13.991-3.965,30.312,30.312,0,0,1-7.3-6.144l7.222.238a1.537,1.537,0,0,0,.1-3.073l-9.992-.329a1.536,1.536,0,0,0-2.005,2.008l.329,9.989a1.537,1.537,0,1,0,3.074-.068c0-.011,0-.022,0-.033l-.19-5.763a33.54,33.54,0,0,0,7.18,5.812,30.323,30.323,0,0,0,15.573,4.4A29.722,29.722,0,0,0,87.857,258.1a31.729,31.729,0,0,0,8.2-20.552A1.536,1.536,0,0,0,94.524,236.012Zm0,0" transform="translate(-34.589 -207.005)" fill="#fff"/></svg>