<svg xmlns="http://www.w3.org/2000/svg" width="72.665" height="72.665" viewBox="0 0 72.665 72.665"><g transform="translate(42.577 26.966)"><path d="M301.419,190a1.419,1.419,0,1,0,1.419,1.419A1.42,1.42,0,0,0,301.419,190Z" transform="translate(-300 -190)" fill="#fff"/></g><path d="M71,62.974,52.058,44.03A28.13,28.13,0,0,0,56.77,28.385,28.385,28.385,0,1,0,28.385,56.77,28.131,28.131,0,0,0,44.03,52.058l5.236,5.236,0,0L62.974,71A5.676,5.676,0,1,0,71,62.974ZM43.363,49.067h0a25.572,25.572,0,1,1,5.7-5.7A25.67,25.67,0,0,1,43.363,49.067Zm2.978,1.287a28.48,28.48,0,0,0,4.013-4.013l4.027,4.027a34.449,34.449,0,0,1-4.013,4.013ZM68.995,68.995a2.836,2.836,0,0,1-4.013,0l-12.6-12.6a37.294,37.294,0,0,0,4.013-4.013L69,64.982a2.836,2.836,0,0,1,0,4.013Z" fill="#fff"/><g transform="translate(26.966 11.354)"><path d="M207.324,90.938A17.058,17.058,0,0,0,191.419,80a1.419,1.419,0,0,0,0,2.838,14.289,14.289,0,0,1,13.255,9.118,1.419,1.419,0,1,0,2.65-1.018Z" transform="translate(-190 -80)" fill="#fff"/></g></svg>