<svg xmlns="http://www.w3.org/2000/svg" width="65.464" height="65.464" viewBox="0 0 65.464 65.464"><path d="M62.093,25.458H59.646a27.629,27.629,0,0,0-2.74-6.615l1.729-1.729a3.373,3.373,0,0,0,0-4.768L53.116,6.826a3.454,3.454,0,0,0-4.768,0L46.619,8.555A27.708,27.708,0,0,0,40,5.816V3.37A3.374,3.374,0,0,0,36.635,0H28.828a3.374,3.374,0,0,0-3.37,3.37V5.816a27.691,27.691,0,0,0-6.615,2.74L17.114,6.828a3.451,3.451,0,0,0-4.768,0L6.826,12.347a3.373,3.373,0,0,0,0,4.768l1.729,1.729a27.6,27.6,0,0,0-2.739,6.614H3.37A3.374,3.374,0,0,0,0,28.828v7.806A3.374,3.374,0,0,0,3.37,40H5.816a27.691,27.691,0,0,0,2.74,6.615L6.828,48.349a3.373,3.373,0,0,0,0,4.768l5.519,5.519a3.45,3.45,0,0,0,4.768,0l1.729-1.729a27.741,27.741,0,0,0,6.615,2.74v2.446a3.374,3.374,0,0,0,3.37,3.37h7.806A3.374,3.374,0,0,0,40,62.094V59.647a27.691,27.691,0,0,0,6.615-2.74l1.729,1.729a3.451,3.451,0,0,0,4.768,0l5.519-5.519a3.373,3.373,0,0,0,0-4.768L56.908,46.62A27.741,27.741,0,0,0,59.647,40h2.446a3.374,3.374,0,0,0,3.37-3.37V28.828A3.376,3.376,0,0,0,62.093,25.458Zm.946,11.177a.947.947,0,0,1-.946.946H57.738l-.218.937a25.319,25.319,0,0,1-3.168,7.651l-.509.817,3.078,3.078a.946.946,0,0,1,0,1.338L51.4,56.921a.946.946,0,0,1-1.338,0l-3.078-3.078-.817.509a25.263,25.263,0,0,1-7.651,3.168l-.937.218v4.354a.947.947,0,0,1-.946.946H28.828a.947.947,0,0,1-.946-.946V57.738l-.937-.218a25.319,25.319,0,0,1-7.651-3.168l-.817-.509L15.4,56.921a.946.946,0,0,1-1.338,0L8.542,51.4a.946.946,0,0,1,0-1.338l3.078-3.078-.509-.817a25.262,25.262,0,0,1-3.168-7.651l-.218-.937H3.37a.947.947,0,0,1-.946-.946V28.828a.947.947,0,0,1,.946-.946H7.725l.218-.937a25.293,25.293,0,0,1,3.168-7.651l.509-.817L8.542,15.4a.946.946,0,0,1,0-1.338l5.519-5.519a.946.946,0,0,1,1.338,0l3.078,3.078.817-.509a25.262,25.262,0,0,1,7.651-3.168l.937-.218V3.37a.947.947,0,0,1,.946-.946h7.806a.947.947,0,0,1,.947.946V7.725l.937.218a25.318,25.318,0,0,1,7.651,3.168l.817.509,3.078-3.078a.946.946,0,0,1,1.338,0l5.519,5.519a.946.946,0,0,1,0,1.338l-3.078,3.078.509.817a25.237,25.237,0,0,1,3.168,7.651l.218.937h4.354a.947.947,0,0,1,.946.946Z" fill="#fff"/><path d="M29.123,17A12.123,12.123,0,1,0,41.245,29.123,12.136,12.136,0,0,0,29.123,17Zm0,21.821a9.7,9.7,0,1,1,9.7-9.7A9.709,9.709,0,0,1,29.123,38.821Z" transform="translate(3.609 3.609)" fill="#fff"/></svg>