<svg xmlns="http://www.w3.org/2000/svg" width="88.087" height="88.087" viewBox="0 0 88.087 88.087">
  <g id="setting" transform="translate(0)">
    <g id="Group_597" data-name="Group 597" transform="translate(42.323 12.042)">
      <g id="Group_596" data-name="Group 596">
        <path id="Path_583" data-name="Path 583" d="M279.718,96.587a1.721,1.721,0,0,0-1.452-1.7l-4.273-.677-2.2-5.307,2.54-3.5a1.72,1.72,0,0,0-.177-2.227l-7.634-7.629a1.72,1.72,0,0,0-2.227-.175l-3.5,2.542-5.311-2.2-.68-4.271a1.721,1.721,0,0,0-1.7-1.45H247.72a1.72,1.72,0,1,0,0,3.441h3.917l.6,3.772a1.72,1.72,0,0,0,1.041,1.319l7.091,2.934a1.72,1.72,0,0,0,1.669-.2l3.09-2.244,5.557,5.553-2.243,3.093a1.72,1.72,0,0,0-.2,1.669l2.939,7.086a1.72,1.72,0,0,0,1.32,1.04l3.774.6,0,7.856-3.771.6a1.721,1.721,0,0,0-1.319,1.041l-2.934,7.091a1.72,1.72,0,0,0,.2,1.669l2.244,3.09-5.553,5.557-3.093-2.243a1.72,1.72,0,0,0-1.669-.2l-7.086,2.938a1.72,1.72,0,0,0-1.04,1.32l-.6,3.775H247.72a1.72,1.72,0,1,0,0,3.441h5.408a1.72,1.72,0,0,0,1.7-1.451l.677-4.275,5.307-2.2,3.5,2.54a1.72,1.72,0,0,0,2.227-.177l7.629-7.634a1.72,1.72,0,0,0,.175-2.227l-2.542-3.5,2.2-5.311,4.271-.68a1.721,1.721,0,0,0,1.45-1.7Z" transform="translate(-246 -69.994)" fill="#fff"/>
      </g>
    </g>
    <g id="Group_599" data-name="Group 599" transform="translate(42.323 55.3)">
      <g id="Group_598" data-name="Group 598">
        <path id="Path_584" data-name="Path 584" d="M247.7,321.431a1.72,1.72,0,0,0,.016,3.441l.08,0a1.72,1.72,0,0,0-.1-3.439Z" transform="translate(-245.999 -321.431)" fill="#fff"/>
      </g>
    </g>
    <g id="Group_601" data-name="Group 601" transform="translate(42.323 29.345)">
      <g id="Group_600" data-name="Group 600">
        <path id="Path_585" data-name="Path 585" d="M247.719,170.569a1.72,1.72,0,0,0,0,3.441,11.259,11.259,0,0,1,5.243,21.222,1.72,1.72,0,1,0,1.605,3.043,14.7,14.7,0,0,0-6.848-27.706Z" transform="translate(-245.999 -170.569)" fill="#fff"/>
      </g>
    </g>
    <g id="Group_603" data-name="Group 603" transform="translate(0 76.388)">
      <g id="Group_602" data-name="Group 602">
        <path id="Path_586" data-name="Path 586" d="M9.979,444H1.72A1.721,1.721,0,0,0,0,445.72v8.258a1.721,1.721,0,0,0,1.72,1.72H9.979a1.721,1.721,0,0,0,1.72-1.72V445.72A1.721,1.721,0,0,0,9.979,444Zm-1.72,8.258H3.441v-4.817H8.258Z" transform="translate(0 -444)" fill="#fff"/>
      </g>
    </g>
    <g id="Group_605" data-name="Group 605" transform="translate(76.388 76.388)">
      <g id="Group_604" data-name="Group 604">
        <path id="Path_587" data-name="Path 587" d="M453.979,444H445.72a1.721,1.721,0,0,0-1.72,1.72v8.258a1.721,1.721,0,0,0,1.72,1.72h8.258a1.721,1.721,0,0,0,1.72-1.72V445.72A1.721,1.721,0,0,0,453.979,444Zm-1.72,8.258h-4.817v-4.817h4.817Z" transform="translate(-444 -444)" fill="#fff"/>
      </g>
    </g>
    <g id="Group_607" data-name="Group 607">
      <g id="Group_606" data-name="Group 606">
        <path id="Path_588" data-name="Path 588" d="M9.979,0H1.72A1.721,1.721,0,0,0,0,1.72V9.979A1.721,1.721,0,0,0,1.72,11.7H9.979a1.721,1.721,0,0,0,1.72-1.72V1.72A1.721,1.721,0,0,0,9.979,0ZM8.258,8.258H3.441V3.441H8.258Z" fill="#fff"/>
      </g>
    </g>
    <g id="Group_609" data-name="Group 609" transform="translate(76.388)">
      <g id="Group_608" data-name="Group 608">
        <path id="Path_589" data-name="Path 589" d="M453.979,0H445.72A1.72,1.72,0,0,0,444,1.72V9.979a1.72,1.72,0,0,0,1.72,1.72h8.258a1.721,1.721,0,0,0,1.72-1.72V1.72A1.721,1.721,0,0,0,453.979,0Zm-1.72,8.258h-4.817V3.441h4.817Z" transform="translate(-444)" fill="#fff"/>
      </g>
    </g>
    <g id="Group_611" data-name="Group 611" transform="translate(80.517 66.679)">
      <g id="Group_610" data-name="Group 610">
        <path id="Path_590" data-name="Path 590" d="M469.72,387.571a1.721,1.721,0,0,0-1.72,1.72v1.72a1.72,1.72,0,1,0,3.441,0v-1.72A1.721,1.721,0,0,0,469.72,387.571Z" transform="translate(-468 -387.571)" fill="#fff"/>
      </g>
    </g>
    <g id="Group_613" data-name="Group 613" transform="translate(80.517 58.077)">
      <g id="Group_612" data-name="Group 612">
        <path id="Path_591" data-name="Path 591" d="M469.72,337.571a1.721,1.721,0,0,0-1.72,1.72v1.72a1.72,1.72,0,0,0,3.441,0v-1.72A1.721,1.721,0,0,0,469.72,337.571Z" transform="translate(-468 -337.571)" fill="#fff"/>
      </g>
    </g>
    <g id="Group_615" data-name="Group 615" transform="translate(80.517 16.521)">
      <g id="Group_614" data-name="Group 614">
        <path id="Path_592" data-name="Path 592" d="M469.72,96.025a1.721,1.721,0,0,0-1.72,1.72v.266a1.72,1.72,0,0,0,3.441,0v-.266A1.721,1.721,0,0,0,469.72,96.025Z" transform="translate(-468 -96.025)" fill="#fff"/>
      </g>
    </g>
    <g id="Group_617" data-name="Group 617" transform="translate(80.517 49.475)">
      <g id="Group_616" data-name="Group 616">
        <path id="Path_593" data-name="Path 593" d="M469.72,287.571a1.721,1.721,0,0,0-1.72,1.72v1.72a1.72,1.72,0,0,0,3.441,0v-1.72A1.721,1.721,0,0,0,469.72,287.571Z" transform="translate(-468 -287.571)" fill="#fff"/>
      </g>
    </g>
    <g id="Group_619" data-name="Group 619" transform="translate(80.517 23.668)">
      <g id="Group_618" data-name="Group 618">
        <path id="Path_594" data-name="Path 594" d="M469.72,137.571a1.721,1.721,0,0,0-1.72,1.72v1.72a1.72,1.72,0,1,0,3.441,0v-1.72A1.721,1.721,0,0,0,469.72,137.571Z" transform="translate(-468 -137.571)" fill="#fff"/>
      </g>
    </g>
    <g id="Group_621" data-name="Group 621" transform="translate(80.517 40.873)">
      <g id="Group_620" data-name="Group 620">
        <path id="Path_595" data-name="Path 595" d="M469.72,237.571a1.721,1.721,0,0,0-1.72,1.72v1.72a1.72,1.72,0,0,0,3.441,0v-1.72A1.721,1.721,0,0,0,469.72,237.571Z" transform="translate(-468 -237.571)" fill="#fff"/>
      </g>
    </g>
    <g id="Group_623" data-name="Group 623" transform="translate(80.517 32.271)">
      <g id="Group_622" data-name="Group 622">
        <path id="Path_596" data-name="Path 596" d="M469.72,187.571a1.721,1.721,0,0,0-1.72,1.72v1.72a1.72,1.72,0,1,0,3.441,0v-1.72A1.721,1.721,0,0,0,469.72,187.571Z" transform="translate(-468 -187.571)" fill="#fff"/>
      </g>
    </g>
    <g id="Group_625" data-name="Group 625" transform="translate(4.129 40.873)">
      <g id="Group_624" data-name="Group 624">
        <path id="Path_597" data-name="Path 597" d="M25.72,237.571a1.721,1.721,0,0,0-1.72,1.72v1.72a1.72,1.72,0,1,0,3.441,0v-1.72A1.721,1.721,0,0,0,25.72,237.571Z" transform="translate(-24 -237.571)" fill="#fff"/>
      </g>
    </g>
    <g id="Group_627" data-name="Group 627" transform="translate(4.129 49.475)">
      <g id="Group_626" data-name="Group 626">
        <path id="Path_598" data-name="Path 598" d="M25.72,287.571a1.721,1.721,0,0,0-1.72,1.72v1.72a1.72,1.72,0,0,0,3.441,0v-1.72A1.721,1.721,0,0,0,25.72,287.571Z" transform="translate(-24 -287.571)" fill="#fff"/>
      </g>
    </g>
    <g id="Group_629" data-name="Group 629" transform="translate(4.129 16.521)">
      <g id="Group_628" data-name="Group 628">
        <path id="Path_599" data-name="Path 599" d="M25.72,96.025A1.721,1.721,0,0,0,24,97.745v.266a1.72,1.72,0,0,0,3.441,0v-.266A1.721,1.721,0,0,0,25.72,96.025Z" transform="translate(-24 -96.025)" fill="#fff"/>
      </g>
    </g>
    <g id="Group_631" data-name="Group 631" transform="translate(4.129 32.271)">
      <g id="Group_630" data-name="Group 630">
        <path id="Path_600" data-name="Path 600" d="M25.72,187.571a1.721,1.721,0,0,0-1.72,1.72v1.72a1.72,1.72,0,1,0,3.441,0v-1.72A1.721,1.721,0,0,0,25.72,187.571Z" transform="translate(-24 -187.571)" fill="#fff"/>
      </g>
    </g>
    <g id="Group_633" data-name="Group 633" transform="translate(4.129 58.077)">
      <g id="Group_632" data-name="Group 632">
        <path id="Path_601" data-name="Path 601" d="M25.72,337.571a1.721,1.721,0,0,0-1.72,1.72v1.72a1.72,1.72,0,1,0,3.441,0v-1.72A1.721,1.721,0,0,0,25.72,337.571Z" transform="translate(-24 -337.571)" fill="#fff"/>
      </g>
    </g>
    <g id="Group_635" data-name="Group 635" transform="translate(4.129 23.668)">
      <g id="Group_634" data-name="Group 634">
        <path id="Path_602" data-name="Path 602" d="M25.72,137.571a1.721,1.721,0,0,0-1.72,1.72v1.72a1.72,1.72,0,1,0,3.441,0v-1.72A1.721,1.721,0,0,0,25.72,137.571Z" transform="translate(-24 -137.571)" fill="#fff"/>
      </g>
    </g>
    <g id="Group_637" data-name="Group 637" transform="translate(4.129 66.679)">
      <g id="Group_636" data-name="Group 636">
        <path id="Path_603" data-name="Path 603" d="M25.72,387.571a1.721,1.721,0,0,0-1.72,1.72v1.72a1.72,1.72,0,1,0,3.441,0v-1.72A1.721,1.721,0,0,0,25.72,387.571Z" transform="translate(-24 -387.571)" fill="#fff"/>
      </g>
    </g>
    <g id="Group_639" data-name="Group 639" transform="translate(50.792 80.654)">
      <g id="Group_638" data-name="Group 638">
        <path id="Path_604" data-name="Path 604" d="M298.669,468.8h-1.72a1.72,1.72,0,1,0,0,3.441h1.72a1.72,1.72,0,1,0,0-3.441Z" transform="translate(-295.228 -468.798)" fill="#fff"/>
      </g>
    </g>
    <g id="Group_641" data-name="Group 641" transform="translate(33.588 80.654)">
      <g id="Group_640" data-name="Group 640">
        <path id="Path_605" data-name="Path 605" d="M198.669,468.8h-1.72a1.72,1.72,0,1,0,0,3.441h1.72a1.72,1.72,0,1,0,0-3.441Z" transform="translate(-195.228 -468.798)" fill="#fff"/>
      </g>
    </g>
    <g id="Group_643" data-name="Group 643" transform="translate(42.19 80.654)">
      <g id="Group_642" data-name="Group 642">
        <path id="Path_606" data-name="Path 606" d="M248.669,468.8h-1.72a1.72,1.72,0,1,0,0,3.441h1.72a1.72,1.72,0,1,0,0-3.441Z" transform="translate(-245.228 -468.798)" fill="#fff"/>
      </g>
    </g>
    <g id="Group_645" data-name="Group 645" transform="translate(24.986 80.654)">
      <g id="Group_644" data-name="Group 644">
        <path id="Path_607" data-name="Path 607" d="M148.669,468.8h-1.72a1.72,1.72,0,1,0,0,3.441h1.72a1.72,1.72,0,1,0,0-3.441Z" transform="translate(-145.228 -468.798)" fill="#fff"/>
      </g>
    </g>
    <g id="Group_647" data-name="Group 647" transform="translate(59.395 80.654)">
      <g id="Group_646" data-name="Group 646">
        <path id="Path_608" data-name="Path 608" d="M348.669,468.8h-1.72a1.72,1.72,0,1,0,0,3.441h1.72a1.72,1.72,0,1,0,0-3.441Z" transform="translate(-345.228 -468.798)" fill="#fff"/>
      </g>
    </g>
    <g id="Group_649" data-name="Group 649" transform="translate(16.383 80.654)">
      <g id="Group_648" data-name="Group 648">
        <path id="Path_609" data-name="Path 609" d="M98.669,468.8h-1.72a1.72,1.72,0,1,0,0,3.441h1.72a1.72,1.72,0,1,0,0-3.441Z" transform="translate(-95.228 -468.798)" fill="#fff"/>
      </g>
    </g>
    <g id="Group_651" data-name="Group 651" transform="translate(67.997 80.654)">
      <g id="Group_650" data-name="Group 650">
        <path id="Path_610" data-name="Path 610" d="M397.213,468.8h-.266a1.72,1.72,0,1,0,0,3.441h.266a1.72,1.72,0,1,0,0-3.441Z" transform="translate(-395.227 -468.798)" fill="#fff"/>
      </g>
    </g>
    <g id="Group_653" data-name="Group 653" transform="translate(50.792 4.266)">
      <g id="Group_652" data-name="Group 652">
        <path id="Path_611" data-name="Path 611" d="M298.669,24.8h-1.72a1.72,1.72,0,1,0,0,3.441h1.72a1.72,1.72,0,0,0,0-3.441Z" transform="translate(-295.228 -24.798)" fill="#fff"/>
      </g>
    </g>
    <g id="Group_655" data-name="Group 655" transform="translate(42.19 4.266)">
      <g id="Group_654" data-name="Group 654">
        <path id="Path_612" data-name="Path 612" d="M248.669,24.8h-1.72a1.72,1.72,0,0,0,0,3.441h1.72a1.72,1.72,0,1,0,0-3.441Z" transform="translate(-245.228 -24.798)" fill="#fff"/>
      </g>
    </g>
    <g id="Group_657" data-name="Group 657" transform="translate(67.997 4.266)">
      <g id="Group_656" data-name="Group 656">
        <path id="Path_613" data-name="Path 613" d="M397.214,24.8h-.266a1.72,1.72,0,1,0,0,3.441h.266a1.72,1.72,0,1,0,0-3.441Z" transform="translate(-395.228 -24.798)" fill="#fff"/>
      </g>
    </g>
    <g id="Group_659" data-name="Group 659" transform="translate(59.395 4.266)">
      <g id="Group_658" data-name="Group 658">
        <path id="Path_614" data-name="Path 614" d="M348.669,24.8h-1.72a1.72,1.72,0,1,0,0,3.441h1.72a1.72,1.72,0,1,0,0-3.441Z" transform="translate(-345.228 -24.798)" fill="#fff"/>
      </g>
    </g>
    <g id="Group_661" data-name="Group 661" transform="translate(33.588 4.266)">
      <g id="Group_660" data-name="Group 660">
        <path id="Path_615" data-name="Path 615" d="M198.669,24.8h-1.72a1.72,1.72,0,1,0,0,3.441h1.72a1.72,1.72,0,1,0,0-3.441Z" transform="translate(-195.228 -24.798)" fill="#fff"/>
      </g>
    </g>
    <g id="Group_663" data-name="Group 663" transform="translate(24.986 4.266)">
      <g id="Group_662" data-name="Group 662">
        <path id="Path_616" data-name="Path 616" d="M148.669,24.8h-1.72a1.72,1.72,0,1,0,0,3.441h1.72a1.72,1.72,0,1,0,0-3.441Z" transform="translate(-145.228 -24.798)" fill="#fff"/>
      </g>
    </g>
    <g id="Group_665" data-name="Group 665" transform="translate(16.383 4.266)">
      <g id="Group_664" data-name="Group 664">
        <path id="Path_617" data-name="Path 617" d="M98.669,24.8h-1.72a1.72,1.72,0,1,0,0,3.441h1.72a1.72,1.72,0,1,0,0-3.441Z" transform="translate(-95.228 -24.798)" fill="#fff"/>
      </g>
    </g>
    <g id="Group_667" data-name="Group 667" transform="translate(24.453 36.99)">
      <g id="Group_666" data-name="Group 666">
        <path id="Path_618" data-name="Path 618" d="M145.067,215.5a1.72,1.72,0,1,0,.5,1.216A1.733,1.733,0,0,0,145.067,215.5Z" transform="translate(-142.13 -215)" fill="#fff"/>
      </g>
    </g>
    <g id="Group_669" data-name="Group 669" transform="translate(24.452 11.212)">
      <g id="Group_668" data-name="Group 668">
        <path id="Path_619" data-name="Path 619" d="M152.891,65.168h-7.078a3.691,3.691,0,0,0-3.687,3.687V86.7a1.72,1.72,0,1,0,3.441,0V79.227h7.57v34.747h-7.57v-14.6a1.72,1.72,0,0,0-3.441,0v16.319a1.717,1.717,0,0,0,.144.69l5.505,12.584a1.72,1.72,0,0,0,3.152,0l5.505-12.584a1.717,1.717,0,0,0,.144-.69V68.855A3.691,3.691,0,0,0,152.891,65.168Zm-3.539,58.818-2.875-6.571h5.75Zm3.785-48.2h-7.57V68.855a.246.246,0,0,1,.246-.246h7.078a.246.246,0,0,1,.246.246v6.931Z" transform="translate(-142.126 -65.168)" fill="#fff"/>
      </g>
    </g>
  </g>
</svg>
