<svg xmlns="http://www.w3.org/2000/svg" width="287.604" height="71.196" viewBox="0 0 287.604 71.196"><path d="M351.351,124.009l.25.009-.208-.2.02-.034-.054-.421.049-.059-.072,0L336.266,82.89l.29-.16-.373-.063-.1-.2-.052-.035c-.018-.02-.034-.036-.049-.05l.037-.162-.144.08-.261-.113-.2-.486-.1.436L306.3,77.266l.285-.839-.645.779-.385-.075-.1.161-.19.065-.052.11-.308-.052.188.221-27.352,33.143-.334-.275.174.467-.064.077a.769.769,0,0,0-.1.347l-.042.283.056.056-.429.52.562-.267L287.9,139.7l-.279.127.348.058.126.205,0,0,.2.185.238.089.3.743.084-.679,42.408,7.132.015.065.172-.042a.636.636,0,0,0,.341-.1l.112-.025.02-.024.045.026-.015-.063.078-.094.915.155-.692-.425L350.984,124.4l.567.543-.313-.834Zm-2.172.294-17.286,20.941-5.085-21.8ZM290.1,122.38,288.3,136.6l-8.466-22.692Zm16.325,10.068,21.248,13.016-36.383-6.117Zm-13.469-11.364L317.72,94.343l6.972,27.387Zm25.406-29.536-10.7-12.573,25.655,4.307Zm-25.38,26.8,5.252-15.515,16.224-7.675Zm29.062,5.168-15.507,7.068-12.465-7.637Zm7.505-19.137-3.6,14.869-6.167-24.226Zm19.242,18.447-21.992-.847,3.974-16.429Zm-18.841-20.092-10.535-10.1,14.977-8.275Zm-13-10.581-17.98,8.507,7.178-21.2ZM296.9,101.64l-15.968,7.554,22.735-27.533Zm-.733,2.174-5.68,16.75-10.833-8.942Zm-4.709,19.468,13.269,8.125-15.169,6.915Zm16.778,8.342,17.157-7.82,4.987,21.38Zm22.933-27.719L335.642,85.4l13.236,35.485Z" transform="translate(-277 -76.427)" fill="#fff"/><g transform="translate(96.475 8.175)"><g transform="translate(0 0.217)"><path d="M366.994,84.077a.815.815,0,0,1,.425.12,1.423,1.423,0,0,1,.306.256.715.715,0,0,1,.148.5v17.434h6.02a.823.823,0,0,1,.518.138.917.917,0,0,1,.272.289.718.718,0,0,1,.124.42v1.145a.771.771,0,0,1-.124.459.874.874,0,0,1-.272.284.823.823,0,0,1-.518.138h-8.954V84.951a.774.774,0,0,1,.136-.5,1.093,1.093,0,0,1,.291-.256.8.8,0,0,1,.422-.12Z" transform="translate(-364.938 -84.077)" fill="#fff"/></g><g transform="translate(13.492 0.217)"><path d="M386.193,84.077a.756.756,0,0,1,.367.091.86.86,0,0,1,.3.21,1.027,1.027,0,0,1,.246.419l5.447,19.5a.788.788,0,0,1-.016.555.7.7,0,0,1-.255.292.868.868,0,0,1-.485.12h-1.4a.8.8,0,0,1-.484-.179,1.077,1.077,0,0,1-.361-.547l-1.421-5.84h-6.354l-1.518,5.84a1.158,1.158,0,0,1-.347.547.717.717,0,0,1-.465.179h-1.424a.8.8,0,0,1-.458-.12.83.83,0,0,1-.272-.292.642.642,0,0,1,0-.555l5.51-19.5a.823.823,0,0,1,.208-.419.892.892,0,0,1,.3-.21.667.667,0,0,1,.364-.091Zm-1.27,2.871-2.387,8.872h4.811l-2.36-8.872Z" transform="translate(-377.236 -84.077)" fill="#fff"/></g><g transform="translate(32.906 0.217)"><path d="M400.288,84.077a7.807,7.807,0,0,1,2.769.434,5.172,5.172,0,0,1,1.907,1.209,5.114,5.114,0,0,1,1.111,1.834,7.346,7.346,0,0,1,.354,2.3,5,5,0,0,1-.573,2.5,4.953,4.953,0,0,1-1.3,1.561,3.937,3.937,0,0,1,1.89,2.008,8.115,8.115,0,0,1,.168,5.288,5.924,5.924,0,0,1-1.139,2.057,5.668,5.668,0,0,1-1.979,1.453,7.092,7.092,0,0,1-2.908.54h-5.656V84.077Zm-2.421,8.654H399.8a4.353,4.353,0,0,0,2.7-.746,2.514,2.514,0,0,0,.964-2.131,2.8,2.8,0,0,0-.773-2.163,3.485,3.485,0,0,0-2.406-.712h-2.421Zm0,9.686h2.722a3.518,3.518,0,0,0,2.5-.894,3.4,3.4,0,0,0,.951-2.612,4.427,4.427,0,0,0-.286-1.7,2.537,2.537,0,0,0-.79-1.038,2.917,2.917,0,0,0-1.179-.516,7.253,7.253,0,0,0-1.439-.136h-2.481Z" transform="translate(-394.932 -84.077)" fill="#fff"/></g><g transform="translate(49.738)"><path d="M416.568,83.879a6.964,6.964,0,0,1,2.892.547,5.278,5.278,0,0,1,1.942,1.468,6.094,6.094,0,0,1,1.089,2.181,10.285,10.285,0,0,1,.35,2.706v7.84a10.19,10.19,0,0,1-.35,2.693,6.23,6.23,0,0,1-1.089,2.177,5.029,5.029,0,0,1-1.942,1.472,8.141,8.141,0,0,1-5.778,0,5.163,5.163,0,0,1-1.954-1.472,6.023,6.023,0,0,1-1.1-2.177,10.194,10.194,0,0,1-.348-2.693v-7.84a10.288,10.288,0,0,1,.348-2.706,5.9,5.9,0,0,1,1.1-2.181,5.424,5.424,0,0,1,1.954-1.468A6.966,6.966,0,0,1,416.568,83.879Zm0,2.875a3.2,3.2,0,0,0-2.446.974,4.311,4.311,0,0,0-.915,3.053v7.84a4.287,4.287,0,0,0,.915,3.041,3.217,3.217,0,0,0,2.446.95,3.169,3.169,0,0,0,2.438-.95,4.35,4.35,0,0,0,.892-3.041v-7.84a4.375,4.375,0,0,0-.892-3.053A3.15,3.15,0,0,0,416.568,86.754Z" transform="translate(-410.275 -83.879)" fill="#fff"/></g><g transform="translate(84.246 0.217)"><path d="M450.687,84.077a.777.777,0,0,1,.371.091.816.816,0,0,1,.3.21,1.1,1.1,0,0,1,.246.419l5.446,19.5a.788.788,0,0,1-.016.555.735.735,0,0,1-.259.292.845.845,0,0,1-.481.12H454.9a.783.783,0,0,1-.486-.179,1.1,1.1,0,0,1-.365-.547l-1.416-5.84h-6.357l-1.516,5.84a1.142,1.142,0,0,1-.347.547.724.724,0,0,1-.47.179h-1.423a.789.789,0,0,1-.452-.12.848.848,0,0,1-.276-.292.657.657,0,0,1,0-.555L447.3,84.8a.76.76,0,0,1,.207-.419.835.835,0,0,1,.3-.21.653.653,0,0,1,.361-.091Zm-1.268,2.871-2.394,8.872h4.812l-2.357-8.872Z" transform="translate(-441.729 -84.077)" fill="#fff"/></g><g transform="translate(100.423 0.217)"><path d="M468.247,84.077a.83.83,0,0,1,.5.132A1.242,1.242,0,0,1,469,84.5a.778.778,0,0,1,.115.423v1.151a.828.828,0,0,1-.115.448,1.234,1.234,0,0,1-.258.29.8.8,0,0,1-.5.136h-3.994v17.429a.785.785,0,0,1-.136.5,1.16,1.16,0,0,1-.291.258.731.731,0,0,1-.417.12h-1.218a.785.785,0,0,1-.451-.12,1.108,1.108,0,0,1-.286-.258.759.759,0,0,1-.138-.5V86.948h-3.963a.773.773,0,0,1-.5-.136.914.914,0,0,1-.259-.29.725.725,0,0,1-.12-.42V84.951a.741.741,0,0,1,.12-.422,1.018,1.018,0,0,1,.259-.3.7.7,0,0,1,.5-.151Z" transform="translate(-456.475 -84.077)" fill="#fff"/></g><g transform="translate(116.05)"><path d="M477.016,83.879a6.975,6.975,0,0,1,2.89.547,5.253,5.253,0,0,1,1.935,1.468,5.927,5.927,0,0,1,1.094,2.181,10.2,10.2,0,0,1,.346,2.706v7.84a10.1,10.1,0,0,1-.346,2.693,6.055,6.055,0,0,1-1.094,2.177,5.006,5.006,0,0,1-1.935,1.472,8.148,8.148,0,0,1-5.781,0,5.19,5.19,0,0,1-1.952-1.472,6.115,6.115,0,0,1-1.107-2.177,10.016,10.016,0,0,1-.348-2.693v-7.84a10.108,10.108,0,0,1,.348-2.706,5.984,5.984,0,0,1,1.107-2.181,5.454,5.454,0,0,1,1.952-1.468A6.98,6.98,0,0,1,477.016,83.879Zm0,2.875a3.2,3.2,0,0,0-2.451.974,4.332,4.332,0,0,0-.907,3.053v7.84a4.307,4.307,0,0,0,.907,3.041,3.222,3.222,0,0,0,2.451.95,3.179,3.179,0,0,0,2.438-.95,4.371,4.371,0,0,0,.89-3.041v-7.84a4.4,4.4,0,0,0-.89-3.053A3.16,3.16,0,0,0,477.016,86.754Z" transform="translate(-470.719 -83.879)" fill="#fff"/></g><path d="M484.872,102.732" transform="translate(-353.295 -82.049)" fill="#fff"/><path d="M487.751,102.5" transform="translate(-353.016 -82.071)" fill="#fff"/><g transform="translate(151.243 0.217)"><path d="M504.828,84.077a1.028,1.028,0,0,1,.456.12,1.457,1.457,0,0,1,.3.256.726.726,0,0,1,.149.5v19.426a.718.718,0,0,1-.149.5,1.475,1.475,0,0,1-.3.258.767.767,0,0,1-.422.12h-1.189a.8.8,0,0,1-.45-.12,1.077,1.077,0,0,1-.287-.258.777.777,0,0,1-.137-.5V84.951a.787.787,0,0,1,.137-.5,1.067,1.067,0,0,1,.287-.256.81.81,0,0,1,.422-.12Z" transform="translate(-502.798 -84.077)" fill="#fff"/></g><g transform="translate(159.779 0.217)"><path d="M512.639,84.077a.819.819,0,0,1,.422.12,1.364,1.364,0,0,1,.3.256.726.726,0,0,1,.149.5v12.8a11.512,11.512,0,0,0,.2,2.327,3.8,3.8,0,0,0,.622,1.5,2.3,2.3,0,0,0,1.049.788,4.248,4.248,0,0,0,1.5.226,3.878,3.878,0,0,0,1.377-.226,2.3,2.3,0,0,0,1.044-.788,4.05,4.05,0,0,0,.652-1.5,10.17,10.17,0,0,0,.226-2.327v-12.8a.8.8,0,0,1,.134-.5,1.153,1.153,0,0,1,.292-.256.8.8,0,0,1,.424-.12h1.21a.818.818,0,0,1,.421.12,1.5,1.5,0,0,1,.3.256.721.721,0,0,1,.15.5V97.606a13.409,13.409,0,0,1-.331,3,7.3,7.3,0,0,1-1.094,2.508,5.586,5.586,0,0,1-1.929,1.725,6.043,6.043,0,0,1-2.88.639,5.952,5.952,0,0,1-2.825-.628,5.427,5.427,0,0,1-1.97-1.691,7.338,7.338,0,0,1-1.134-2.512,12.179,12.179,0,0,1-.369-3.038V84.951a.78.78,0,0,1,.138-.5,1.107,1.107,0,0,1,.29-.256.815.815,0,0,1,.421-.12Z" transform="translate(-510.578 -84.077)" fill="#fff"/></g><g transform="translate(177.206 0.217)"><path d="M529.128,84.077a.6.6,0,0,1,.336.091.824.824,0,0,1,.3.2,1.525,1.525,0,0,1,.308.374l3.387,7.93,3.358-7.93a1.307,1.307,0,0,1,.274-.374.791.791,0,0,1,.3-.2.626.626,0,0,1,.362-.091h1.723a.99.99,0,0,1,.454.12,1.307,1.307,0,0,1,.3.256.715.715,0,0,1,.153.5v19.426a.82.82,0,0,1-.118.459.922.922,0,0,1-.272.284.84.84,0,0,1-.518.138h-1.116a.816.816,0,0,1-.459-.12.993.993,0,0,1-.316-.258.753.753,0,0,1-.138-.5l.305-14.947-2.692,6.778a1.067,1.067,0,0,1-.4.535,1.039,1.039,0,0,1-.456.1h-1.359a1.205,1.205,0,0,1-.5-.1,1.05,1.05,0,0,1-.414-.535L529.1,89.284l.3,15.094a.8.8,0,0,1-.119.459,1.058,1.058,0,0,1-.258.284.784.784,0,0,1-.5.138h-1.185a.794.794,0,0,1-.449-.12,1.147,1.147,0,0,1-.286-.258.765.765,0,0,1-.138-.5V84.951a.721.721,0,0,1,.125-.422,1.046,1.046,0,0,1,.258-.3.686.686,0,0,1,.49-.151Z" transform="translate(-526.463 -84.077)" fill="#fff"/></g><g transform="translate(0 33.927)"><path d="M375.622,114.8a.775.775,0,0,1,.5.136,1.214,1.214,0,0,1,.261.292.735.735,0,0,1,.12.423v1.183a1.6,1.6,0,0,1-.12.42,1.285,1.285,0,0,1-.242.29.748.748,0,0,1-.486.132h-7.779v6.205h5.748a.78.78,0,0,1,.5.14,1.162,1.162,0,0,1,.258.286.756.756,0,0,1,.121.42v1.182a1.228,1.228,0,0,1-.121.426,1.463,1.463,0,0,1-.245.29.7.7,0,0,1-.484.131h-5.779v6.364h7.75a.744.744,0,0,1,.5.132,1.287,1.287,0,0,1,.261.287.762.762,0,0,1,.12.423v1.179a1.562,1.562,0,0,1-.12.422,1.175,1.175,0,0,1-.242.29.716.716,0,0,1-.486.136H364.938V114.8Z" transform="translate(-364.938 -114.804)" fill="#fff"/><path d="M391.066,114.8a.8.8,0,0,1,.5.136,1.2,1.2,0,0,1,.259.292.768.768,0,0,1,.117.423v1.183a1.49,1.49,0,0,1-.117.42,1.515,1.515,0,0,1-.24.29.77.77,0,0,1-.49.132h-7.775v6.205h5.751a.764.764,0,0,1,.5.14,1.25,1.25,0,0,1,.261.286.776.776,0,0,1,.123.42v1.182a1.486,1.486,0,0,1-.123.426,1.538,1.538,0,0,1-.245.29.707.707,0,0,1-.481.131h-5.783v6.364h7.748a.764.764,0,0,1,.5.132,1.275,1.275,0,0,1,.259.287.8.8,0,0,1,.117.423v1.179a1.455,1.455,0,0,1-.117.422,1.363,1.363,0,0,1-.24.29.737.737,0,0,1-.49.136h-10.71V114.8Z" transform="translate(-363.439 -114.804)" fill="#fff"/></g><path d="M489.239,93.969h2.389a3.288,3.288,0,0,0,2.6-.9,4.161,4.161,0,0,0,.788-2.758,5.074,5.074,0,0,0-.245-1.7,2.35,2.35,0,0,0-.679-1.039,2.256,2.256,0,0,0-1.073-.51,6.206,6.206,0,0,0-1.393-.147h-2.389ZM499.4,104.847a.532.532,0,0,1-.194.292.739.739,0,0,1-.46.12h-1.634a.953.953,0,0,1-.522-.179,1.563,1.563,0,0,1-.483-.536h0l-4.745-7.695h-2.117v7.529a.778.778,0,0,1-.137.5,1.088,1.088,0,0,1-.291.258.726.726,0,0,1-.421.12h-1.212a.805.805,0,0,1-.454-.12,1.161,1.161,0,0,1-.285-.258.765.765,0,0,1-.136-.5v-20.3h5.326a8.411,8.411,0,0,1,2.893.434,5.044,5.044,0,0,1,1.963,1.259,4.74,4.74,0,0,1,1.123,1.981,9.059,9.059,0,0,1,.348,2.619,6.89,6.89,0,0,1-.937,3.89,5.864,5.864,0,0,1-2.728,2.1l4.974,7.932A.848.848,0,0,1,499.4,104.847Z" transform="translate(-353.156 -83.86)" fill="#fff"/><path d="M429.784,93.969h2.395a3.308,3.308,0,0,0,2.606-.9,4.168,4.168,0,0,0,.782-2.758,5.112,5.112,0,0,0-.24-1.7,2.431,2.431,0,0,0-.676-1.039,2.343,2.343,0,0,0-1.082-.51,6.2,6.2,0,0,0-1.39-.147h-2.395Zm10.167,10.878a.553.553,0,0,1-.2.292.748.748,0,0,1-.46.12h-1.637a.927.927,0,0,1-.519-.179,1.565,1.565,0,0,1-.484-.536h0L431.9,96.848h-2.117v7.529a.767.767,0,0,1-.132.5,1.211,1.211,0,0,1-.287.258.747.747,0,0,1-.425.12h-1.212a.785.785,0,0,1-.451-.12,1.184,1.184,0,0,1-.292-.258.8.8,0,0,1-.13-.5v-20.3h5.324a8.359,8.359,0,0,1,2.889.434,5.066,5.066,0,0,1,1.97,1.259,4.849,4.849,0,0,1,1.123,1.981,9.384,9.384,0,0,1,.34,2.619,6.819,6.819,0,0,1-.94,3.89,5.8,5.8,0,0,1-2.719,2.1l4.968,7.932A.9.9,0,0,1,439.951,104.847Z" transform="translate(-358.927 -83.86)" fill="#fff"/></g></svg>