<svg xmlns="http://www.w3.org/2000/svg" width="50" height="50" viewBox="0 0 50 50">
  <g id="Group_676" data-name="Group 676" transform="translate(7227 -9574)">
    <path id="Rectangle_553" data-name="Rectangle 553" d="M25,0H50a0,0,0,0,1,0,0V50a0,0,0,0,1,0,0H25A25,25,0,0,1,0,25v0A25,25,0,0,1,25,0Z" transform="translate(-7227 9574)"/>
    <g id="envelope_1_" data-name="envelope (1)" transform="translate(-7214.271 9531.634)" opacity="0.75">
      <g id="Group_695" data-name="Group 695" transform="translate(0 57.75)">
        <path id="Path_622" data-name="Path 622" d="M21.088,57.75H2.937A2.94,2.94,0,0,0,0,60.687V73.092A2.94,2.94,0,0,0,2.937,76.03H21.083a2.94,2.94,0,0,0,2.937-2.937v-12.4A2.937,2.937,0,0,0,21.088,57.75Zm1.6,15.342a1.6,1.6,0,0,1-1.6,1.6H2.937a1.6,1.6,0,0,1-1.6-1.6v-12.4a1.6,1.6,0,0,1,1.6-1.6H21.083a1.6,1.6,0,0,1,1.6,1.6v12.4Z" transform="translate(0 -57.75)" fill="#fff"/>
        <path id="Path_623" data-name="Path 623" d="M68.13,115.346,74,110.078a.672.672,0,1,0-.9-1L65,116.35l-1.58-1.411s-.01-.01-.01-.015a.992.992,0,0,0-.109-.094l-6.431-5.755a.672.672,0,1,0-.895,1l5.944,5.313L56,120.932a.674.674,0,0,0-.03.949.686.686,0,0,0,.492.214.672.672,0,0,0,.457-.179l6.009-5.621,1.63,1.456a.669.669,0,0,0,.895,0l1.675-1.5,5.974,5.676a.673.673,0,0,0,.949-.025.674.674,0,0,0-.025-.949Z" transform="translate(-52.981 -106.36)" fill="#fff"/>
      </g>
    </g>
  </g>
</svg>
