<svg width="59" height="73" viewBox="0 0 59 73" version="1.1" xmlns="http://www.w3.org/2000/svg"
     xml:space="preserve"><g id="checking"><path id="Path_930" d="M45.933,62.148l0,-18.132l11.734,-11.733c0.707,-0.707 1.105,-1.668 1.105,-2.668c0,-2.07 -1.703,-3.773 -3.773,-3.773c-1,0 -1.961,0.398 -2.668,1.105l-6.4,6.4l0,-33.347l-45.931,0l0,72.526l35.555,0l10.378,-10.378Zm-9.67,6.252l0,-5.544l5.543,0l-5.543,5.544Zm17.778,-39.744c0.252,-0.239 0.586,-0.372 0.933,-0.372c0.744,0 1.356,0.612 1.356,1.356c0,0.347 -0.133,0.681 -0.372,0.933l-0.354,0.354l-1.917,-1.917l0.354,-0.354Zm-2.064,2.064l1.917,1.917l-16.422,16.422l-1.917,-1.917l16.422,-16.422Zm-49.56,-28.3l41.1,0l0,2.415l-41.1,0l0,-2.415Zm31.428,59.23l0,8.461l-31.427,0l0,-62.858l12.8,0l-2.418,2.417l-7.965,0l0,9.67l9.67,0l0,-7.961l3.877,-3.879l-0.25,-0.25l25.384,0l0,28.51l-10.525,10.528c-0.084,0.098 -0.16,0.203 -0.227,0.314l-3.626,7.253c-0.087,0.17 -0.132,0.358 -0.132,0.549c0,0.663 0.546,1.209 1.209,1.209c0.19,0 0.376,-0.045 0.545,-0.13l7.253,-3.626c0.111,-0.067 0.216,-0.143 0.314,-0.227l5.189,-5.2l0,14l-8.462,0c-0.663,0 -1.209,0.546 -1.209,1.209l0,0.011Zm-23.32,-46.29l1.563,-1.56l0,3.126l-4.835,0l0,-4.838l3.126,0l-1.563,1.563l1.709,1.709Zm24.9,35.077l-2.509,1.255l1.255,-2.509l1.254,1.254Z" /><path
        id="Path_931"
        d="M12.796,21.758l-7.961,0l0,9.67l9.67,0l0,-7.961l3.877,-3.879l-1.709,-1.709l-3.877,3.879Zm-0.708,7.253l-4.835,0l0,-4.836l3.126,0l-1.564,1.563l1.709,1.709l1.564,-1.559l0,3.123Z"
/><path id="Path_932"
        d="M12.796,33.846l-7.961,0l0,9.67l9.67,0l0,-7.961l3.877,-3.879l-1.709,-1.709l-3.877,3.879Zm-0.708,7.253l-4.835,0l0,-4.836l3.126,0l-1.564,1.563l1.709,1.709l1.564,-1.559l0,3.123Z"
/><path id="Path_933"
        d="M4.835,55.603l9.67,0l0,-9.67l-9.67,0l0,9.67Zm2.418,-7.253l4.835,0l0,4.835l-4.835,0l0,-4.835Z"
/><path
        id="Path_934" d="M4.835,67.691l9.67,0l0,-9.67l-9.67,0l0,9.67Zm2.418,-7.253l4.835,0l0,4.835l-4.835,0l0,-4.835Z"
/><rect id="Path_935" x="19.34" y="10.879" width="21.758" height="2.418"
/><rect id="Path_936" x="19.34"
        y="15.714" width="9.67"
        height="2.418"
/><rect
        id="Path_937" x="31.428" y="15.714" width="2.418" height="2.418"/><rect
        id="Path_938" x="19.34" y="21.758" width="19.34" height="2.418"/><rect
        id="Path_939" x="19.34" y="26.593" width="19.34" height="2.418"/><rect
        id="Path_940" x="19.34" y="35.054" width="10.879" height="2.418"/><rect
        id="Path_941" x="19.34" y="39.89" width="13.3" height="2.418"/><rect
        id="Path_942" x="32.637" y="35.054" width="4.835" height="2.418"/><rect
        id="Path_943" x="19.34" y="47.142" width="9.67" height="2.418"/><rect
        id="Path_944" x="19.34" y="59.23" width="7.253" height="2.418"/><rect
        id="Path_945" x="19.34" y="64.065" width="12.088" height="2.418"/></g></svg>
