<svg id="analysis" xmlns="http://www.w3.org/2000/svg" width="88.087" height="88.087" viewBox="0 0 88.087 88.087">
  <path id="Path_568" data-name="Path 568" d="M55.086,2a19.081,19.081,0,0,0-5.872,37.237V56.32a5.872,5.872,0,0,0,11.745,0V39.237A19.081,19.081,0,0,0,55.086,2Zm0,57.257a2.939,2.939,0,0,1-2.936-2.936V46.044h5.872V56.32A2.939,2.939,0,0,1,55.086,59.257Zm2.936-16.149H52.149V39.922a17.4,17.4,0,0,0,5.872,0Zm-2.936-5.872A16.149,16.149,0,1,1,71.235,21.086,16.168,16.168,0,0,1,55.086,37.235Z" transform="translate(13.916 -2)" fill="#fff"/>
  <path id="Path_571" data-name="Path 571" d="M71.6,45V58.213H23.149a1.469,1.469,0,0,0-1.468,1.468v1.468a5.872,5.872,0,0,1-11.745,0V49.4H7V61.149a8.818,8.818,0,0,0,8.809,8.809H73.065A10.288,10.288,0,0,0,83.342,59.681a1.469,1.469,0,0,0-1.468-1.468H74.534V45Zm1.468,22.022h-50.7a8.774,8.774,0,0,0,2.249-5.872h55.64a7.352,7.352,0,0,1-7.192,5.872Z" transform="translate(0.341 18.129)" fill="#fff"/>
  <path id="Path_572" data-name="Path 572" d="M3.468,4.936a5.878,5.878,0,0,1,5.872,5.872V53.384h2.936V10.809a8.774,8.774,0,0,0-2.249-5.872H57.789V2H3.468a1.468,1.468,0,1,0,0,2.936Z" transform="translate(-2 -2)" fill="#fff"/>
  <path id="Path_573" data-name="Path 573" d="M59.678,26.457,50.529,40.6a4.322,4.322,0,0,0-1.017-.131,4.365,4.365,0,0,0-2.785,1.02L31.806,32.536a4.4,4.4,0,1,0-8.721-.878,4.332,4.332,0,0,0,.442,1.887L10.3,46.77l.038.038A4.347,4.347,0,0,0,8.4,46.34a4.4,4.4,0,1,0,4.4,4.4,4.347,4.347,0,0,0-.468-1.936l.038.038L25.6,35.621a4.286,4.286,0,0,0,4.672-.578L45.2,44a4.4,4.4,0,1,0,8.721.876,4.357,4.357,0,0,0-.928-2.672l9.155-14.148ZM8.4,52.212a1.468,1.468,0,1,1,1.468-1.468A1.471,1.471,0,0,1,8.4,52.212ZM27.49,33.127a1.468,1.468,0,1,1,1.468-1.468A1.471,1.471,0,0,1,27.49,33.127ZM49.512,46.34a1.468,1.468,0,1,1,1.468-1.468A1.471,1.471,0,0,1,49.512,46.34Z" transform="translate(-1.064 9.449)" fill="#fff"/>
  <path id="Path_574" data-name="Path 574" d="M13,10H42.362v2.936H13Z" transform="translate(3.149 1.745)" fill="#fff"/>
  <path id="Path_575" data-name="Path 575" d="M13,15H42.362v2.936H13Z" transform="translate(3.149 4.086)" fill="#fff"/>
  <path id="Path_576" data-name="Path 576" d="M13,20H42.362v2.936H13Z" transform="translate(3.149 6.426)" fill="#fff"/>
  <path id="Path_577" data-name="Path 577" d="M13,46H62.916v2.936H13Z" transform="translate(3.149 18.597)" fill="#fff"/>
  <path id="Path_578" data-name="Path 578" d="M49,5V7.936a11.745,11.745,0,1,1,0,23.49v2.936A14.681,14.681,0,1,0,49,5Z" transform="translate(20.002 -0.596)" fill="#fff"/>
  <path id="Path_579" data-name="Path 579" d="M16,50h5.872v2.936H16Z" transform="translate(4.554 20.47)" fill="#fff"/>
  <path id="Path_580" data-name="Path 580" d="M28,50h5.872v2.936H28Z" transform="translate(10.171 20.47)" fill="#fff"/>
  <path id="Path_581" data-name="Path 581" d="M40,50h5.872v2.936H40Z" transform="translate(15.789 20.47)" fill="#fff"/>
  <path id="Path_582" data-name="Path 582" d="M44.406,17.186l3.954,6.652L56.872,10.4" transform="translate(17.851 1.93)" fill="none" stroke="#fff" stroke-width="2"/>
</svg>
