<svg xmlns="http://www.w3.org/2000/svg" width="81.091" height="81.09" viewBox="0 0 81.091 81.09">
  <g id="Page-1" transform="translate(0.002 0.002)">
    <g id="_001---Thinking" data-name="001---Thinking" transform="translate(-0.002 -0.001)">
      <path id="Shape" d="M2.989,51.533a9.916,9.916,0,0,0,1.4.811c.585.3,1.564.8,1.633,1.15a2.334,2.334,0,0,1-.158,1.368c-.2.432-.414.8-.595,1.126-.5.873-1.323,2.337-.074,3.358.292.27.8.661,1.257,1.014a3.406,3.406,0,0,0-.441,1.95,1.95,1.95,0,0,0,.793,1.324c.3.216.63.405.946.588.795.453,1.105.664,1.216,1.081a3.731,3.731,0,0,1-.149,1.637c-.08.351-.157.7-.207,1.061a7.944,7.944,0,0,0,.457,3.641,5.064,5.064,0,0,0,4.788,3.689,5.5,5.5,0,0,0,1.1-.116A102.461,102.461,0,0,0,26.357,71.8c3.043,1.787,4.968,7.219,5.469,9.259a1.351,1.351,0,0,0,1.312,1.024l33.922-.095a1.351,1.351,0,0,0,1.287-1.757,10.44,10.44,0,0,0-1.369-2.568,12.542,12.542,0,0,1-.876-1.46,25.731,25.731,0,0,1-1.526-3.848,45.544,45.544,0,0,1-1.6-8A22.879,22.879,0,0,1,64.753,52.5a30.21,30.21,0,0,1,3.671-5.8c.811-1.095,1.653-2.229,2.408-3.419A20.9,20.9,0,0,0,73.616,36.7a1.351,1.351,0,0,0-2.633-.611,18.245,18.245,0,0,1-2.433,5.744c-.7,1.11-1.512,2.2-2.3,3.258a32.659,32.659,0,0,0-3.977,6.332,25.567,25.567,0,0,0-1.981,13.271A47.965,47.965,0,0,0,62,73.168,28.185,28.185,0,0,0,63.676,77.4a14.775,14.775,0,0,0,1.047,1.757l.091.135-30.654.092a21.552,21.552,0,0,0-4.758-8.63l1.216-.423c.908-.318,1.593-.557,1.947-.676,5.787-1.845,8.682-4.48,8.6-7.838a1.327,1.327,0,0,0-1.38-1.312,1.351,1.351,0,0,0-1.319,1.383c.032,1.383-1.107,3.407-6.725,5.2-.368.118-1.081.365-2.015.693-1,.35-2.277.8-3.683,1.273h-.009a105.249,105.249,0,0,1-11.614,3.514,2.407,2.407,0,0,1-2.784-1.8,5.406,5.406,0,0,1-.334-2.395c.039-.27.1-.554.165-.83a5.9,5.9,0,0,0,.135-2.91A4.479,4.479,0,0,0,9.11,61.873l-.291-.166a4.974,4.974,0,0,1,.522-.838,1.351,1.351,0,0,0-.261-1.924c-.323-.238-1.081-.811-1.649-1.262.065-.118.135-.247.2-.364.212-.373.455-.811.691-1.307a5.045,5.045,0,0,0,.359-3.023c-.323-1.649-1.9-2.457-3.056-3.046a7.814,7.814,0,0,1-1.114-.647,5.758,5.758,0,0,1-.811-.657c0-.205.22-.7,1.249-1.954a54.526,54.526,0,0,0,6.183-10.048,4.017,4.017,0,0,0,.522-1.827A4.73,4.73,0,0,0,9.676,31.43c-.547-.5-1.065-.976-1.123-1.374a2.656,2.656,0,0,1,.219-.961c.22-.578.476-1.146.73-1.715a19.837,19.837,0,0,0,1.351-3.664,36.249,36.249,0,0,1,1.216-4.471,23.171,23.171,0,0,1,4.849-7.921C19.5,8.588,23.57,6.652,29.03,5.568A87.822,87.822,0,0,1,41.709,3.741a29.582,29.582,0,0,1,4.3.092,1.355,1.355,0,0,0,.251-2.7,32.874,32.874,0,0,0-4.7-.093A90.208,90.208,0,0,0,28.5,2.918C22.4,4.135,17.974,6.271,14.952,9.466A25.849,25.849,0,0,0,9.53,18.309,39.508,39.508,0,0,0,8.2,23.193a17.5,17.5,0,0,1-1.16,3.081c-.27.615-.549,1.23-.792,1.869a4.722,4.722,0,0,0-.368,2.269,5.2,5.2,0,0,0,1.977,3.008c.662.607,1.1,1.034,1.1,1.407a2.289,2.289,0,0,1-.23.587,52.166,52.166,0,0,1-5.914,9.61C1.839,46.218.812,47.608,1.026,49A4.141,4.141,0,0,0,2.989,51.533Z" transform="translate(-0.998 -0.999)" fill="#fff"/>
      <path id="Shape-2" data-name="Shape" d="M13.886,19.253a17.8,17.8,0,0,1,3.708-6.082C19.4,11.264,22.511,9.86,26.855,9a1.352,1.352,0,0,0-.526-2.652c-4.9.976-8.5,2.646-10.7,4.965a20.488,20.488,0,0,0-4.281,7.011,34.37,34.37,0,0,0-1.11,4.123l2.639.585A32.3,32.3,0,0,1,13.886,19.253Z" transform="translate(2.251 0.871)" fill="#fff"/>
      <path id="Shape-3" data-name="Shape" d="M38.378,8.568l-.811,4.044a16.091,16.091,0,0,0-2.276.946l-3.431-2.3a2.7,2.7,0,0,0-3.395.353l-2.243,2.242a2.7,2.7,0,0,0-.357,3.426L28.152,20.7a16.091,16.091,0,0,0-.946,2.276l-4.038.811A2.7,2.7,0,0,0,21,26.434v3.189a2.7,2.7,0,0,0,2.162,2.65l4.044.811a16.09,16.09,0,0,0,.946,2.276l-2.3,3.431a2.7,2.7,0,0,0,.353,3.395l2.243,2.243a2.711,2.711,0,0,0,3.425.355L35.29,42.5a16.092,16.092,0,0,0,2.276.946l.811,4.038a2.7,2.7,0,0,0,2.652,2.169h3.189a2.7,2.7,0,0,0,2.65-2.162l.811-4.044a16.091,16.091,0,0,0,2.276-.946l3.431,2.3a2.7,2.7,0,0,0,3.395-.353L59.023,42.2a2.7,2.7,0,0,0,.357-3.426l-2.287-3.415a16.092,16.092,0,0,0,.946-2.276l4.038-.811a2.692,2.692,0,0,0,1.861-1.408l2.037,1.365a2.468,2.468,0,0,0,1.312.38,2.433,2.433,0,0,0,1.726-.718l1.8-1.8a2.454,2.454,0,0,0,.315-3.073l-1.743-2.608a12.7,12.7,0,0,0,.654-1.57l3.058-.61a2.433,2.433,0,0,0,1.964-2.4V17.3a2.433,2.433,0,0,0-1.953-2.393l-3.072-.612a12.51,12.51,0,0,0-.651-1.57l1.77-2.639a2.442,2.442,0,0,0-.338-3.038l-1.8-1.8a2.453,2.453,0,0,0-3.073-.315L63.336,6.676a12.7,12.7,0,0,0-1.57-.654l-.611-3.058A2.433,2.433,0,0,0,58.76,1H56.219a2.433,2.433,0,0,0-2.393,1.953l-.612,3.072a12.509,12.509,0,0,0-1.57.655L49,4.91a2.445,2.445,0,0,0-3.038.338L44.749,6.464a2.769,2.769,0,0,0-.531-.058H41.029A2.7,2.7,0,0,0,38.378,8.568Zm20.661,5.3-.631-.631a5.377,5.377,0,0,1,1.68,10.145l-2.052-.405a16.09,16.09,0,0,0-.946-2.276l2.3-3.431a2.7,2.7,0,0,0-.349-3.4ZM47.728,7.3l3.089,2.076a1.351,1.351,0,0,0,1.443.039,9.886,9.886,0,0,1,2.473-1.034,1.351,1.351,0,0,0,.973-1.041L56.432,3.7h2.114l.726,3.649a1.351,1.351,0,0,0,.973,1.041,9.886,9.886,0,0,1,2.473,1.034,1.351,1.351,0,0,0,1.443-.047l3.089-2.073,1.5,1.5L66.679,11.9a1.351,1.351,0,0,0-.039,1.443,9.886,9.886,0,0,1,1.034,2.473,1.351,1.351,0,0,0,1.041.973l3.649.726v2.114l-3.642.726a1.351,1.351,0,0,0-1.041.973A9.886,9.886,0,0,1,66.647,23.8a1.351,1.351,0,0,0,.039,1.443l2.073,3.089-1.5,1.5-3.012-2.015V26.434a2.711,2.711,0,0,0-.946-2.058A8.09,8.09,0,0,0,57.665,10.46a7.821,7.821,0,0,0-2.4.395,2.741,2.741,0,0,0-1.892.416l-3.412,2.287a16.091,16.091,0,0,0-2.276-.946L46.87,8.574a2.478,2.478,0,0,0-.093-.319Zm-7.672,6.64.973-4.834h3.189l.972,4.838a1.351,1.351,0,0,0,.972,1.038,13.313,13.313,0,0,1,3.191,1.324,1.351,1.351,0,0,0,1.43-.046l4.09-2.735,2.265,2.253-2.743,4.094a1.351,1.351,0,0,0-.046,1.43A13.313,13.313,0,0,1,55.672,24.5a1.351,1.351,0,0,0,1.038.972l4.834.966v3.191l-4.838.972a1.351,1.351,0,0,0-1.038.972,13.313,13.313,0,0,1-1.324,3.191,1.351,1.351,0,0,0,.046,1.43l2.735,4.09-2.253,2.265L50.778,39.8a1.351,1.351,0,0,0-1.43-.046,13.313,13.313,0,0,1-3.191,1.324,1.351,1.351,0,0,0-.972,1.038l-.968,4.834H41.029l-.972-4.838a1.351,1.351,0,0,0-.972-1.038,13.313,13.313,0,0,1-3.191-1.324,1.351,1.351,0,0,0-1.43.046l-4.09,2.735L28.11,40.277l2.743-4.094a1.351,1.351,0,0,0,.046-1.43,13.313,13.313,0,0,1-1.324-3.191,1.351,1.351,0,0,0-1.038-.972L23.7,29.624V26.434l4.838-.972a1.351,1.351,0,0,0,1.038-.972A13.313,13.313,0,0,1,30.9,21.3a1.351,1.351,0,0,0-.046-1.43l-2.735-4.09,2.253-2.265,4.094,2.743a1.351,1.351,0,0,0,1.43.046,13.313,13.313,0,0,1,3.191-1.324A1.351,1.351,0,0,0,40.056,13.943Z" transform="translate(6.032 -0.998)" fill="#fff"/>
      <path id="Shape-4" data-name="Shape" d="M39.46,32.92A9.46,9.46,0,1,0,30,23.46,9.46,9.46,0,0,0,39.46,32.92Zm0-16.217A6.757,6.757,0,1,1,32.7,23.46,6.757,6.757,0,0,1,39.46,16.7Z" transform="translate(9.195 3.571)" fill="#fff"/>
      <circle id="Oval" cx="1.351" cy="1.351" r="1.351" transform="translate(47.304 25.68)" fill="#fff"/>
      <circle id="Oval-2" data-name="Oval" cx="1.351" cy="1.351" r="1.351" transform="translate(10.815 27.031)" fill="#fff"/>
    </g>
  </g>
</svg>
